<svg id="delivery-truck" xmlns="http://www.w3.org/2000/svg" width="53.917" height="40.017" viewBox="0 0 53.917 40.017">
  <path id="Path_67" data-name="Path 67" d="M414.106,300a2.106,2.106,0,1,0,2.106,2.106A2.105,2.105,0,0,0,414.106,300Zm0,0" transform="translate(-368.613 -268.408)" fill="#4b3049"/>
  <path id="Path_68" data-name="Path 68" d="M413.053,220a1.053,1.053,0,1,0,1.053,1.053A1.054,1.054,0,0,0,413.053,220Zm0,0" transform="translate(-368.613 -196.832)" fill="#4b3049"/>
  <path id="Path_69" data-name="Path 69" d="M108.106,300a2.106,2.106,0,1,0,2.106,2.106A2.105,2.105,0,0,0,108.106,300Zm0,0" transform="translate(-94.837 -268.408)" fill="#4b3049"/>
  <path id="Path_70" data-name="Path 70" d="M49.491,19.023,47.676,11.76a3.158,3.158,0,0,0-2.183-5.441H37.068V3.159A3.163,3.163,0,0,0,33.909,0H3.159A3.163,3.163,0,0,0,0,3.159v27.38A3.163,3.163,0,0,0,3.159,33.7H6.95a6.318,6.318,0,0,0,12.637,0H39.174a6.318,6.318,0,0,0,12.637,0c0-.06,0-.12,0-.18a3.164,3.164,0,0,0,2.111-2.979V24.221A5.273,5.273,0,0,0,49.491,19.023Zm-3.768-6.386,1.58,6.318H38.557l2.415-2.415a1.053,1.053,0,0,0-1.489-1.489l-2.415,2.414V12.637Zm.822-3.159a1.054,1.054,0,0,1-1.053,1.053H37.068V8.425h8.425A1.054,1.054,0,0,1,46.546,9.478ZM13.269,37.911A4.212,4.212,0,1,1,17.481,33.7,4.217,4.217,0,0,1,13.269,37.911Zm5.957-6.318a6.318,6.318,0,0,0-11.914,0H3.159a1.054,1.054,0,0,1-1.053-1.053V3.159A1.054,1.054,0,0,1,3.159,2.106h30.75a1.054,1.054,0,0,1,1.053,1.053V31.592Zm26.267,6.318A4.212,4.212,0,1,1,49.705,33.7,4.217,4.217,0,0,1,45.493,37.911Zm5.882-6.52a6.319,6.319,0,0,0-11.839.2H37.068V21.061H48.652a3.164,3.164,0,0,1,2.978,2.106H48.652a1.053,1.053,0,0,0,0,2.106h3.159v5.265A1.053,1.053,0,0,1,51.375,31.391Zm0,0" fill="#4b3049"/>
  <path id="Path_71" data-name="Path 71" d="M95.478,60a9.478,9.478,0,1,0,9.478,9.478A9.489,9.489,0,0,0,95.478,60Zm0,16.849a7.372,7.372,0,1,1,7.372-7.372A7.38,7.38,0,0,1,95.478,76.849Zm0,0" transform="translate(-76.944 -53.682)" fill="#4b3049"/>
  <path id="Path_72" data-name="Path 72" d="M171.265,104.212h-3.159v-3.159a1.053,1.053,0,1,0-2.106,0v4.212a1.053,1.053,0,0,0,1.053,1.053h4.212a1.053,1.053,0,0,0,0-2.106Zm0,0" transform="translate(-148.519 -89.469)" fill="#4b3049"/>
</svg>
