<svg id="credit-card_1_" data-name="credit-card (1)" xmlns="http://www.w3.org/2000/svg" width="42.685" height="40.017" viewBox="0 0 42.685 40.017">
  <path id="Path_59" data-name="Path 59" d="M246.834,340a.834.834,0,1,0,.834.834A.834.834,0,0,0,246.834,340Zm0,0" transform="translate(-225.491 -311.655)" fill="#4b3049"/>
  <path id="Path_60" data-name="Path 60" d="M40.184,15.006h-3V2.5a2.5,2.5,0,0,0-2.5-2.5H2.5A2.5,2.5,0,0,0,0,2.5V22.509a2.5,2.5,0,0,0,2.5,2.5h3V37.516a2.5,2.5,0,0,0,2.5,2.5h32.18a2.5,2.5,0,0,0,2.5-2.5V17.507A2.5,2.5,0,0,0,40.184,15.006ZM1.667,6.669H35.515V10H1.667Zm.834-5h32.18a.834.834,0,0,1,.834.834V5H1.667V2.5A.834.834,0,0,1,2.5,1.667Zm0,21.676a.834.834,0,0,1-.834-.834V11.672H35.515v3.335H8a2.5,2.5,0,0,0-2.5,2.5v5.836ZM41.017,37.516a.834.834,0,0,1-.834.834H8a.834.834,0,0,1-.834-.834V17.507A.834.834,0,0,1,8,16.674h32.18a.834.834,0,0,1,.834.834Zm0,0" fill="#4b3049"/>
  <path id="Path_61" data-name="Path 61" d="M295.171,240a4.171,4.171,0,0,0-2.5.835,4.168,4.168,0,1,0,0,6.666,4.168,4.168,0,1,0,2.5-7.5Zm-7.5,4.168a2.5,2.5,0,0,1,4.376-1.654h0a2.5,2.5,0,1,1-4.377,1.653Zm7.5,2.5a2.5,2.5,0,0,1-1.39-.423,4.159,4.159,0,0,0,0-4.157,2.5,2.5,0,1,1,1.39,4.579Zm0,0" transform="translate(-262.157 -219.992)" fill="#4b3049"/>
  <path id="Path_62" data-name="Path 62" d="M130.168,400h-3.335a.834.834,0,1,0,0,1.667h3.335a.834.834,0,1,0,0-1.667Zm0,0" transform="translate(-115.496 -366.653)" fill="#4b3049"/>
  <path id="Path_63" data-name="Path 63" d="M210.168,400h-3.335a.834.834,0,1,0,0,1.667h3.335a.834.834,0,1,0,0-1.667Zm0,0" transform="translate(-188.826 -366.653)" fill="#4b3049"/>
  <path id="Path_64" data-name="Path 64" d="M290.168,400h-3.335a.834.834,0,1,0,0,1.667h3.335a.834.834,0,1,0,0-1.667Zm0,0" transform="translate(-262.157 -366.653)" fill="#4b3049"/>
  <path id="Path_65" data-name="Path 65" d="M370.168,400h-3.335a.834.834,0,0,0,0,1.667h3.335a.834.834,0,1,0,0-1.667Zm0,0" transform="translate(-335.487 -366.653)" fill="#4b3049"/>
  <path id="Path_66" data-name="Path 66" d="M126.834,341.667H133.5a.834.834,0,1,0,0-1.667h-6.669a.834.834,0,1,0,0,1.667Zm0,0" transform="translate(-115.496 -311.655)" fill="#4b3049"/>
</svg>
