<svg id="online-shopping" xmlns="http://www.w3.org/2000/svg" width="42.685" height="40.017" viewBox="0 0 42.685 40.017">
  <path id="Path_73" data-name="Path 73" d="M452.834,201.667a.834.834,0,1,0-.834-.834A.834.834,0,0,0,452.834,201.667Zm0,0" transform="translate(-414.318 -183.326)" fill="#4b3049"/>
  <path id="Path_74" data-name="Path 74" d="M246.834,320a.834.834,0,1,0,.834.834A.834.834,0,0,0,246.834,320Zm0,0" transform="translate(-225.491 -293.322)" fill="#4b3049"/>
  <path id="Path_75" data-name="Path 75" d="M146.834,66.666h.984l1.265,6.326A2.509,2.509,0,0,0,151.536,75h7.27a2.509,2.509,0,0,0,2.453-2.011l1.265-6.326h.984a.834.834,0,0,0,0-1.667h-4.4l-1.477-4.432a.834.834,0,0,0-1.582.527l1.3,3.9h-4.356l1.3-3.9a.834.834,0,0,0-1.582-.527L151.235,65h-4.4a.834.834,0,0,0,0,1.667Zm13.99,0-1.2,6a.836.836,0,0,1-.818.671h-7.27a.837.837,0,0,1-.818-.67l-1.2-6Zm0,0" transform="translate(-133.828 -54.994)" fill="#4b3049"/>
  <path id="Path_76" data-name="Path 76" d="M226.834,163.335a.834.834,0,0,0,.834-.834v-1.667a.834.834,0,1,0-1.667,0V162.5A.834.834,0,0,0,226.834,163.335Zm0,0" transform="translate(-207.159 -146.661)" fill="#4b3049"/>
  <path id="Path_77" data-name="Path 77" d="M266.834,163.335a.834.834,0,0,0,.834-.834v-1.667a.834.834,0,1,0-1.667,0V162.5A.834.834,0,0,0,266.834,163.335Zm0,0" transform="translate(-243.824 -146.661)" fill="#4b3049"/>
  <path id="Path_78" data-name="Path 78" d="M2.5,31.68H17.174v3.335h-2.5A4.169,4.169,0,0,0,10.5,39.183a.834.834,0,0,0,.834.834H31.347a.834.834,0,0,0,.834-.834,4.173,4.173,0,0,0-4.168-4.168h-2.5V31.68H40.184a2.5,2.5,0,0,0,2.5-2.5V2.5a2.5,2.5,0,0,0-2.5-2.5H2.5A2.5,2.5,0,0,0,0,2.5V29.179a2.5,2.5,0,0,0,2.5,2.5ZM30.37,38.349H12.314a2.507,2.507,0,0,1,2.359-1.667H28.012A2.5,2.5,0,0,1,30.37,38.349Zm-6.527-3.335h-5V31.68h5Zm16.93-5.246a.828.828,0,0,1-.589.244H2.5a.834.834,0,0,1-.834-.834V25.01h39.35v4.168A.828.828,0,0,1,40.773,29.768ZM1.912,1.912A.828.828,0,0,1,2.5,1.667H40.184a.834.834,0,0,1,.834.834V23.343H1.667V2.5A.828.828,0,0,1,1.912,1.912Zm0,0" transform="translate(0 0)" fill="#4b3049"/>
  <path id="Path_79" data-name="Path 79" d="M452.834,88.337a.834.834,0,0,0,.834-.834V80.834a.834.834,0,1,0-1.667,0V87.5A.834.834,0,0,0,452.834,88.337Zm0,0" transform="translate(-414.318 -73.331)" fill="#4b3049"/>
</svg>
