<svg id="shopping-bag" xmlns="http://www.w3.org/2000/svg" width="40.017" height="40.017" viewBox="0 0 40.017 40.017">
  <path id="Path_80" data-name="Path 80" d="M452.782,367.563a.782.782,0,1,0-.782-.782A.782.782,0,0,0,452.782,367.563Zm0,0" transform="translate(-416.673 -337.394)" fill="#4b3049"/>
  <path id="Path_81" data-name="Path 81" d="M452.782,253.816a.782.782,0,0,0,.782-.782v-6.253a.782.782,0,0,0-1.563,0v6.253A.782.782,0,0,0,452.782,253.816Zm0,0" transform="translate(-416.673 -226.773)" fill="#4b3049"/>
  <path id="Path_82" data-name="Path 82" d="M.782,28.606h.782V39.235a.782.782,0,0,0,.782.782H37.672a2.347,2.347,0,0,0,2.345-2.345V8.6a.782.782,0,0,0-.782-.782H33.3V7.034a7.034,7.034,0,0,0-14.068,0v.782h-5.94a.782.782,0,0,0-.782.782v8.286a3.93,3.93,0,0,0-1.484,2.348.758.758,0,0,0-.079,0l-.078,0A3.908,3.908,0,1,0,3.91,22.353H.782A.782.782,0,0,0,0,23.135v4.689A.782.782,0,0,0,.782,28.606Zm2.345,0H7.034v9.848H3.126Zm5.471,0h4.689v9.848H8.6Zm10.161,9.848H14.85V28.606h3.908ZM14.85,27.043V23.916h5.471v3.126Zm0-4.689-.08,0a3.881,3.881,0,0,0-.7-1.561V17.8a2.345,2.345,0,1,1,.782,4.555ZM10.9,20.79l.677.085a2.353,2.353,0,0,1,1.58,1.477H8.734A2.346,2.346,0,0,1,10.9,20.79Zm2.39,3.126v3.126H8.6V23.916ZM37.672,38.454H20.321V35.327H38.454v2.345A.782.782,0,0,1,37.672,38.454ZM20.79,7.034a5.471,5.471,0,0,1,10.942,0v.782H20.79ZM19.227,9.379v3.6h-.782a.782.782,0,1,0,0,1.563h3.126a.782.782,0,1,0,0-1.563H20.79v-3.6H31.732v3.6h-.782a.782.782,0,1,0,0,1.563h3.126a.782.782,0,1,0,0-1.563H33.3v-3.6h5.158V33.764H20.321V28.606H21.1a.782.782,0,0,0,.782-.782V23.135a.782.782,0,0,0-.782-.782H17.974a3.906,3.906,0,0,0-3.906-6.173v-6.8ZM4.689,20.008a2.345,2.345,0,0,1,4.648-.436,3.939,3.939,0,0,0-2.223,2.779l-.081,0A2.347,2.347,0,0,1,4.689,20.008ZM1.563,23.916H7.034v3.126H1.563Zm0,0" fill="#4b3049"/>
</svg>
